# xmcd
#
# Track frame offsets:
#	150
#	16036
#	33803
#	53257
#	67408
#	83716
#	103616
#	119786
#	135051
#	150044
#	166092
#	180699
#	197804
#	214375
#	228428
#	243100
#	258825
#	273275
#	288737
#	302527
#	316926
#	333080
#
# Disc length: 4654 seconds
#
# Revision: 0
# Processed by: cddbd v1.5.2PL0 Copyright (c) Steve Scherf et al.
# Submitted via: audiograbber 1.83.01
#
DISCID=1a122c16
DTITLE=diverse - karneval der stars 2011-12 41
DYEAR=2011
DGENRE=karneval
TTITLE0=brings - dat is geil =2+
TTITLE1=kasalla - pirate
TTITLE2=klüngelköpp - in kölle verliebt
TTITLE3=cat ballou - dat 11 jebot
TTITLE4=hanak - jeck forever
TTITLE5=paveier - heimat es
TTITLE6=bläck fööss - alles für die liebe
TTITLE7=cölln girls - sha la lie shal la la
TTITLE8=räuber - nubbeldanz
TTITLE9=stelter, bernd - liebelein
TTITLE10=höhner - carneval
TTITLE11=bläck fööss - un dann hammer dat jeföhl dat mer noch lääve
TTITLE12=räuber - boogie woogie und beethoven
TTITLE13=funky marys - zo mir oder dir
TTITLE14=de ruse - wie em himmel
TTITLE15=paveier - hück naach, do sin mer frei
TTITLE16=köllner, marita - köllner, marita
TTITLE17=flöckchen - schätzje schenk m'r e foto
TTITLE18=3 colonias - ich han en mötz, ich bin jetz präsident
TTITLE19=cölner - zacka zacka
TTITLE20=wanderer - ich sag nur alaaf
TTITLE21=metzger, marc - wenn et fernwieh röf
EXTD=
EXTT0=
EXTT1=
EXTT2=
EXTT3=
EXTT4=
EXTT5=
EXTT6=
EXTT7=
EXTT8=
EXTT9=
EXTT10=
EXTT11=
EXTT12=
EXTT13=
EXTT14=
EXTT15=
EXTT16=
EXTT17=
EXTT18=
EXTT19=
EXTT20=
EXTT21=
PLAYORDER=
